<svg xmlns="http://www.w3.org/2000/svg" viewBox="0 0 256 256" width="256" height="256">
  <rect x="16" y="16" width="224" height="224" rx="56" fill="#0f172a"/>
  <g fill="none" stroke="#ffffff" stroke-width="16" stroke-linecap="round" stroke-linejoin="round">
    <path d="M72 116h112"/>
    <path d="M88 104l12-16h56l12 16"/>
    <path d="M80 116v72a20 20 0 0 0 20 20h56a20 20 0 0 0 20-20v-72"/>
    <path d="M72 132h-10a18 18 0 0 0 0 36h10"/>
    <path d="M184 132h10a18 18 0 0 1 0 36h-10"/>
    <path d="M152 76l18-22"/>
    <path d="M170 92l-30 2"/>
  </g>
</svg>
